<svg xmlns="http://www.w3.org/2000/svg" width="1200" height="760" viewBox="0 0 1200 760" role="img" aria-labelledby="title desc">
  <title id="title">ScholarFix review surface</title>
  <desc id="desc">A client-facing mockup of the review surface showing upload status, metrics, findings, rewrite controls, and report exports.</desc>
  <rect width="1200" height="760" rx="28" fill="#f1f5f9"/>
  <rect x="42" y="42" width="1116" height="676" rx="22" fill="#ffffff" stroke="#dbe4ee"/>
  <rect x="42" y="42" width="1116" height="86" rx="22" fill="#172033"/>
  <text x="78" y="93" font-family="Inter, Segoe UI, Arial, sans-serif" font-size="30" font-weight="700" fill="#ffffff">ScholarFix Review Surface</text>
  <text x="842" y="93" font-family="Inter, Segoe UI, Arial, sans-serif" font-size="15" fill="#cbd5e1">Client-facing manuscript QA</text>

  <rect x="78" y="160" width="312" height="486" rx="18" fill="#f8fafc" stroke="#dbe4ee"/>
  <text x="110" y="204" font-family="Inter, Segoe UI, Arial, sans-serif" font-size="21" font-weight="700" fill="#172033">Uploaded file</text>
  <rect x="110" y="230" width="248" height="58" rx="12" fill="#eff6ff" stroke="#bfdbfe"/>
  <text x="130" y="264" font-family="Inter, Segoe UI, Arial, sans-serif" font-size="16" font-weight="700" fill="#1d4ed8">manuscript_draft.pdf</text>
  <text x="110" y="324" font-family="Inter, Segoe UI, Arial, sans-serif" font-size="15" fill="#475569">Extracted preview</text>
  <rect x="110" y="344" width="248" height="198" rx="10" fill="#ffffff" stroke="#e2e8f0"/>
  <line x1="130" y1="378" x2="330" y2="378" stroke="#cbd5e1" stroke-width="5" stroke-linecap="round"/>
  <line x1="130" y1="408" x2="298" y2="408" stroke="#cbd5e1" stroke-width="5" stroke-linecap="round"/>
  <line x1="130" y1="438" x2="318" y2="438" stroke="#cbd5e1" stroke-width="5" stroke-linecap="round"/>
  <line x1="130" y1="468" x2="280" y2="468" stroke="#cbd5e1" stroke-width="5" stroke-linecap="round"/>
  <line x1="130" y1="498" x2="336" y2="498" stroke="#cbd5e1" stroke-width="5" stroke-linecap="round"/>
  <rect x="110" y="574" width="114" height="36" rx="18" fill="#dcfce7"/>
  <text x="136" y="597" font-family="Inter, Segoe UI, Arial, sans-serif" font-size="14" font-weight="700" fill="#166534">Processed</text>

  <rect x="432" y="160" width="300" height="184" rx="18" fill="#ffffff" stroke="#dbe4ee"/>
  <text x="464" y="204" font-family="Inter, Segoe UI, Arial, sans-serif" font-size="21" font-weight="700" fill="#172033">Quality signals</text>
  <rect x="464" y="234" width="104" height="76" rx="14" fill="#eff6ff"/>
  <text x="492" y="264" font-family="Inter, Segoe UI, Arial, sans-serif" font-size="26" font-weight="800" fill="#1d4ed8">2,450</text>
  <text x="494" y="288" font-family="Inter, Segoe UI, Arial, sans-serif" font-size="13" fill="#475569">words</text>
  <rect x="590" y="234" width="104" height="76" rx="14" fill="#fff7ed"/>
  <text x="632" y="264" font-family="Inter, Segoe UI, Arial, sans-serif" font-size="26" font-weight="800" fill="#c2410c">41</text>
  <text x="617" y="288" font-family="Inter, Segoe UI, Arial, sans-serif" font-size="13" fill="#475569">Flesch</text>

  <rect x="432" y="376" width="300" height="270" rx="18" fill="#ffffff" stroke="#dbe4ee"/>
  <text x="464" y="420" font-family="Inter, Segoe UI, Arial, sans-serif" font-size="21" font-weight="700" fill="#172033">Findings</text>
  <rect x="464" y="452" width="236" height="54" rx="12" fill="#fef3c7" stroke="#fde68a"/>
  <text x="486" y="484" font-family="Inter, Segoe UI, Arial, sans-serif" font-size="15" fill="#92400e">Math notation prompts</text>
  <rect x="464" y="524" width="236" height="54" rx="12" fill="#fee2e2" stroke="#fecaca"/>
  <text x="486" y="556" font-family="Inter, Segoe UI, Arial, sans-serif" font-size="15" fill="#991b1b">Citation alignment checks</text>

  <rect x="774" y="160" width="330" height="486" rx="18" fill="#f8fafc" stroke="#dbe4ee"/>
  <text x="806" y="204" font-family="Inter, Segoe UI, Arial, sans-serif" font-size="21" font-weight="700" fill="#172033">Rewrite and export</text>
  <rect x="806" y="234" width="126" height="34" rx="17" fill="#e0f2fe"/>
  <text x="834" y="256" font-family="Inter, Segoe UI, Arial, sans-serif" font-size="13" font-weight="700" fill="#075985">Formal</text>
  <rect x="948" y="234" width="126" height="34" rx="17" fill="#dcfce7"/>
  <text x="978" y="256" font-family="Inter, Segoe UI, Arial, sans-serif" font-size="13" font-weight="700" fill="#166534">PhD</text>
  <rect x="806" y="304" width="268" height="156" rx="12" fill="#ffffff" stroke="#e2e8f0"/>
  <text x="826" y="340" font-family="Inter, Segoe UI, Arial, sans-serif" font-size="15" fill="#9f1239">- unclear phrasing</text>
  <text x="826" y="376" font-family="Inter, Segoe UI, Arial, sans-serif" font-size="15" fill="#166534">+ tighter academic prose</text>
  <text x="826" y="412" font-family="Inter, Segoe UI, Arial, sans-serif" font-size="15" fill="#166534">+ preserved technical meaning</text>
  <rect x="806" y="500" width="268" height="48" rx="12" fill="#172033"/>
  <text x="864" y="531" font-family="Inter, Segoe UI, Arial, sans-serif" font-size="15" font-weight="700" fill="#ffffff">Download feedback PDF</text>
  <rect x="806" y="568" width="128" height="38" rx="19" fill="#ffffff" stroke="#cbd5e1"/>
  <text x="844" y="592" font-family="Inter, Segoe UI, Arial, sans-serif" font-size="13" font-weight="700" fill="#334155">TXT</text>
  <rect x="946" y="568" width="128" height="38" rx="19" fill="#ffffff" stroke="#cbd5e1"/>
  <text x="984" y="592" font-family="Inter, Segoe UI, Arial, sans-serif" font-size="13" font-weight="700" fill="#334155">MD</text>
</svg>
